<svg width="61" height="53" viewBox="0 0 61 53" fill="none" xmlns="http://www.w3.org/2000/svg">
<path d="M0 26.1876C0 22.2924 5.06054 18.601 12.8192 16.3118C11.0287 8.68924 11.8245 2.62475 15.3308 0.683154C16.139 0.227718 17.084 0.011985 18.116 0.011985V2.68468C17.544 2.68468 17.084 2.79254 16.6985 2.99629C15.0075 3.93113 14.2739 7.49073 14.8459 12.0691C14.9827 13.1957 15.2065 14.3822 15.48 15.5927C17.917 15.0174 20.5779 14.574 23.3755 14.2863C25.054 12.0691 26.7947 10.0555 28.5479 8.29373C24.4945 4.66223 20.6898 2.67269 18.1035 2.67269V0C21.5228 0 25.999 2.34909 30.5249 6.42405C35.0508 2.37306 39.5269 0.0479408 42.9462 0.0479408V2.72063C40.3724 2.72063 36.5552 4.69818 32.5018 8.30572C34.2426 10.0675 35.9833 12.0691 37.637 14.2863C40.447 14.574 43.1078 15.0174 45.5448 15.6047C45.8308 14.4062 46.0422 13.2436 46.1914 12.129C46.7758 7.55065 46.0546 3.99106 44.3761 3.04423C44.0031 2.8285 43.5181 2.73262 42.9462 2.73262V0.0599258C43.9906 0.0599258 44.9356 0.275659 45.7562 0.731095C49.2501 2.67269 50.0334 8.7252 48.2305 16.3238C55.9643 18.6249 61 22.3044 61 26.1876C61 30.0828 55.9395 33.7742 48.1808 36.0634C49.9713 43.6859 49.1755 49.7504 45.6692 51.692C44.861 52.1474 43.916 52.3632 42.8716 52.3632C39.4523 52.3632 34.9762 50.0141 30.4503 45.9391C25.9244 49.9901 21.4482 52.3152 18.0289 52.3152C16.9845 52.3152 16.0395 52.0995 15.2189 51.6441C11.725 49.7025 10.9417 43.65 12.7446 36.0514C5.03567 33.7622 0 30.0708 0 26.1876ZM16.1888 18.1935C16.6488 19.7396 17.2208 21.3336 17.8673 22.9276C18.3771 21.9688 18.9117 21.01 19.4961 20.0512C20.0681 19.0924 20.6773 18.1575 21.2866 17.2466C19.521 17.4983 17.8176 17.8099 16.1888 18.1935ZM21.8834 30.9577C22.8532 32.5757 23.8479 34.1098 24.8799 35.536C26.7326 35.6918 28.6101 35.7757 30.5 35.7757C32.3775 35.7757 34.255 35.6918 36.0952 35.548C37.1272 34.1218 38.1343 32.5996 39.1042 30.9936C40.0491 29.4236 40.9071 27.8295 41.6904 26.2235C40.9195 24.6175 40.0491 23.0115 39.1166 21.4415C38.1468 19.8235 37.1521 18.2894 36.1201 16.8631C34.2674 16.7073 32.3899 16.6234 30.5 16.6234C28.6225 16.6234 26.745 16.7073 24.9048 16.8511C23.8728 18.2774 22.8657 19.7995 21.8958 21.4055C20.9509 22.9756 20.0929 24.5696 19.3096 26.1756C20.0929 27.7816 20.9509 29.3876 21.8834 30.9577ZM17.8673 29.3996C17.1959 31.0056 16.6239 32.6116 16.1514 34.1697C17.7803 34.5532 19.4961 34.8768 21.2742 35.1285C20.6649 34.2057 20.0556 33.2588 19.4837 32.288C18.9117 31.3292 18.3771 30.3584 17.8673 29.3996ZM30.4751 42.1878C31.6315 41.0372 32.7878 39.7548 33.9317 38.3525C32.8127 38.4005 31.6688 38.4364 30.5124 38.4364C29.3437 38.4364 28.1873 38.4124 27.0558 38.3525C28.1749 39.7548 29.3312 41.0372 30.4751 42.1878ZM39.7258 35.1285C41.4914 34.8768 43.1949 34.5652 44.8237 34.1817C44.3636 32.6356 43.7917 31.0416 43.1451 29.4475C42.6353 30.4064 42.1007 31.3652 41.5163 32.324C40.9319 33.2828 40.3351 34.2176 39.7258 35.1285ZM30.5373 10.1874C29.381 11.338 28.2246 12.6204 27.0807 14.0226C28.1998 13.9747 29.3437 13.9387 30.5 13.9387C31.6688 13.9387 32.8251 13.9627 33.9566 14.0226C32.8375 12.6204 31.6812 11.338 30.5373 10.1874ZM39.7383 17.2466C40.3475 18.1695 40.9568 19.1163 41.5287 20.0871C42.1007 21.0459 42.6353 22.0048 43.1451 22.9636C43.8166 21.3576 44.3885 19.7515 44.861 18.1935C43.2322 17.8219 41.5163 17.4983 39.7383 17.2466ZM50.9908 32.2521C55.3924 30.4423 58.2397 28.0692 58.2397 26.1876C58.2397 24.3059 55.3924 21.9209 50.9908 20.1231C49.9215 19.6796 48.7528 19.2841 47.5467 18.9126C46.838 21.2617 45.9054 23.7066 44.7491 26.2115C45.893 28.7045 46.8131 31.1374 47.5094 33.4746C48.7403 33.103 49.9091 32.6955 50.9908 32.2521ZM44.3015 49.3789C45.9925 48.444 46.726 44.8844 46.1541 40.3061C46.0173 39.1795 45.7935 37.993 45.52 36.7825C43.083 37.3577 40.4221 37.8012 37.6245 38.0888C35.946 40.3061 34.2053 42.3196 32.4521 44.0814C36.5055 47.7129 40.3102 49.7025 42.8965 49.7025C43.456 49.6905 43.9285 49.5826 44.3015 49.3789ZM14.8086 40.2462C14.2242 44.8245 14.9454 48.3841 16.6239 49.3309C16.9969 49.5467 17.4819 49.6425 18.0538 49.6425C20.6276 49.6425 24.4448 47.665 28.4982 44.0575C26.7574 42.2956 25.0167 40.2941 23.363 38.0769C20.553 37.7892 17.8922 37.3458 15.4552 36.7585C15.1692 37.969 14.9454 39.1315 14.8086 40.2462ZM10.0216 32.2521C11.0909 32.6955 12.2597 33.091 13.4658 33.4626C14.1745 31.1135 15.107 28.6685 16.2634 26.1636C15.1194 23.6707 14.1993 21.2377 13.5031 18.9006C12.2721 19.2721 11.1033 19.6796 10.0092 20.1231C5.60762 21.9328 2.7603 24.3059 2.7603 26.1876C2.77273 28.0692 5.62005 30.4543 10.0216 32.2521Z" fill="#81D8F7"/>
<path d="M30.5124 31.6648C27.3742 31.6648 24.8302 29.2126 24.8302 26.1876C24.8302 23.1626 27.3742 20.7104 30.5124 20.7104C33.6506 20.7104 36.1947 23.1626 36.1947 26.1876C36.1947 29.2126 33.6506 31.6648 30.5124 31.6648Z" fill="#81D8F7"/>
</svg>
