<svg width="965" height="1024" viewBox="0 0 965 1024" fill="none" xmlns="http://www.w3.org/2000/svg">
<g opacity="0.35">
<path d="M1510.63 296.498C1491.58 204.949 1358.9 142.036 1171.96 124.796C1175.24 -62.7964 1127.57 -201.581 1038.65 -230.692C1018.11 -237.587 995.65 -238.205 972.273 -233.341L985.341 -170.525C998.297 -173.22 1009.25 -172.853 1018.97 -169.88C1061.85 -155.877 1095.87 -75.6725 1105.3 34.6283C1107.71 61.7517 1108.44 90.6937 1108.16 120.433C1050.15 118.397 987.705 120.513 922.926 126.936C874.061 82.7335 824.784 43.6127 776.456 10.466C850.52 -93.9874 926.979 -158.677 985.564 -170.865L972.496 -233.682C895.041 -217.569 805.13 -141.264 722.531 -24.1612C600.202 -98.0443 487.437 -131.598 409.982 -115.485L423.05 -52.6684C481.352 -64.7973 577.49 -36.3067 686.948 29.3805C656.131 78.9919 626.485 134.237 599.866 194.143C537.618 214.145 479.512 237.107 427.179 262.394C414.841 235.573 404.368 209.245 395.539 183.751C359.915 78.8993 358.847 -8.16096 392.241 -38.3246C399.636 -45.1528 410.152 -49.6914 423.108 -52.3867L410.04 -115.204C386.381 -110.282 366.03 -100.758 349.668 -86.1868C280.016 -24.0883 291.864 121.856 369.857 291.952C205.919 382.481 109.838 492.69 128.825 583.958C147.87 675.507 280.553 738.42 467.499 755.66C464.21 943.252 511.888 1082.04 600.808 1111.15C621.343 1118.04 643.804 1118.66 667.463 1113.74C744.918 1097.63 834.829 1021.32 917.427 904.218C1039.76 978.101 1152.52 1011.66 1229.98 995.542C1253.64 990.62 1273.99 981.097 1290.35 966.525C1360 904.427 1348.15 758.482 1270.16 588.387C1433.59 498.256 1529.62 387.766 1510.63 296.498ZM1104.83 184.9C1101.96 223.406 1096.8 263.566 1089.95 304.077C1073.71 283.945 1056.91 263.929 1038.99 244.148C1021.34 224.308 1002.97 205.207 984.718 186.67C1025.94 184.265 1066.05 183.562 1104.83 184.9ZM1038.24 511.735C1024.18 554.334 1009.15 595.077 992.744 633.462C951.539 645.854 909.419 656.674 866.607 665.58C824.077 674.427 781.137 681.303 738.749 686.595C708.398 657.937 678.141 626.908 648.32 593.732C619.237 561.284 592.009 527.862 566.412 493.807C576.023 452.428 587.886 410.58 601.334 369.284C615.392 326.686 630.423 285.942 646.827 247.558C688.032 235.165 730.152 224.346 772.964 215.44C815.494 206.592 858.434 199.716 900.822 194.425C931.173 223.082 961.43 254.111 991.251 287.287C1020.33 319.735 1047.56 353.157 1073.16 387.212C1063.27 428.65 1051.69 470.439 1038.24 511.735ZM1121.59 456.19C1144.66 490.772 1165.46 525.823 1183.79 560.216C1148.76 576.906 1111.48 592.598 1072.43 606.892C1081.72 582.331 1090.89 557.206 1099.1 531.694C1107.37 506.464 1114.73 481.127 1121.59 456.19ZM898.522 816.167C866.702 794.573 834.238 769.882 801.469 742.315C827.053 738.168 853.141 733.623 879.335 728.173C905.811 722.666 931.887 716.653 957.225 709.913C938.732 748.144 918.809 783.734 898.522 816.167ZM654.454 693.845C613.228 696.25 573.118 696.953 534.346 695.615C537.208 657.109 542.37 616.949 549.222 576.437C565.458 596.57 582.257 616.586 600.183 636.367C618.109 656.148 636.199 675.308 654.454 693.845ZM740.65 64.348C772.47 85.941 804.934 110.633 837.703 138.2C812.119 142.346 786.031 146.892 759.837 152.341C733.362 157.849 707.285 163.861 681.947 170.602C700.44 132.371 720.364 96.7808 740.65 64.348ZM566.741 273.622C557.452 298.184 548.28 323.308 540.07 348.82C531.802 374.051 524.379 399.106 517.519 424.043C494.457 389.461 473.649 354.409 455.328 320.016C490.408 303.608 527.694 287.917 566.741 273.622ZM385.21 679.325C276.655 657.532 200.553 615.175 191.352 570.95C182.152 526.725 234.99 457.251 325.906 394.255C347.96 378.793 372.502 363.99 398.006 349.574C425.546 401.445 458.625 454.516 497.066 507.94C483.343 571.922 474.396 633.44 470.051 691.651C440.35 688.719 411.882 684.65 385.21 679.325ZM620.481 1050.34C577.605 1036.33 543.583 956.128 534.153 845.828C531.743 818.704 531.012 789.762 531.289 760.023C589.307 762.059 651.749 759.943 716.528 753.52C765.393 797.722 814.67 836.843 862.997 869.99C788.934 974.443 712.474 1039.13 653.89 1051.32C641.157 1053.68 629.927 1053.37 620.481 1050.34ZM1243.92 696.705C1279.54 801.557 1280.61 888.617 1247.21 918.78C1239.82 925.609 1229.3 930.147 1216.35 932.843C1158.04 944.972 1061.91 916.481 952.447 850.794C983.265 801.182 1012.91 745.937 1039.53 686.032C1101.78 666.029 1159.88 643.067 1212.22 617.78C1224.61 644.883 1235.37 671.152 1243.92 696.705ZM1313.27 486.26C1291.21 501.721 1266.67 516.525 1241.17 530.941C1213.63 479.069 1180.55 425.999 1142.11 372.575C1155.83 308.593 1164.78 247.074 1169.12 188.863C1198.82 191.795 1227.29 195.865 1254.24 201.131C1362.8 222.924 1438.9 265.281 1448.1 309.506C1457.02 353.79 1404.18 423.264 1313.27 486.26Z" fill="#202024"/>
<path d="M846.226 569.019C917.314 554.23 962.953 484.606 948.162 413.509C933.372 342.413 863.753 296.766 792.665 311.554C721.577 326.343 675.938 395.967 690.729 467.064C705.519 538.161 775.137 583.808 846.226 569.019Z" fill="#202024"/>
</g>
</svg>
